<?xml version="1.0" encoding="UTF-8"?>
<svg id="Layer_1" xmlns="http://www.w3.org/2000/svg" version="1.1" viewBox="0 0 553.4 203.5">
  <!-- Generator: Adobe Illustrator 29.0.0, SVG Export Plug-In . SVG Version: 2.1.0 Build 186)  -->
  <defs>
    <style>
      .st0 {
        fill: #8f8f8f;
      }

      .st1 {
        fill: #fff;
      }

      .st2 {
        fill: #121212;
      }

      .st3 {
        fill: #f7bf12;
      }

      .st4 {
        fill: #181818;
      }
    </style>
  </defs>
  <g>
    <path class="st3" d="M140.8,131v-58.6h33c6.8,0,12.7,1.1,17.7,3.3,4.9,2.2,8.8,5.4,11.4,9.5,2.7,4.1,4,9.1,4,14.8s-1.4,10.6-4,14.7c-2.7,4.1-6.5,7.2-11.4,9.4-4.9,2.2-10.8,3.3-17.7,3.3h-23.2l7.9-7.7v29h0c-9.7,0-17.7-7.9-17.7-17.7ZM158.5,121.6l-7.9-8.3h22.2c5.4,0,9.5-1.2,12.2-3.5s4-5.6,4-9.8-1.4-7.5-4-9.8c-2.7-2.3-6.8-3.5-12.2-3.5h-22.2l7.9-8.4v43.3ZM189.3,148.6l-19.1-27.7h18.9l19.3,27.7h-19.1Z"/>
    <path class="st3" d="M240.1,149.5c-6.7,0-12.6-1.3-17.6-3.9-5.1-2.6-9-6.2-11.7-10.7-2.8-4.5-4.1-9.7-4.1-15.5s1.4-11.1,4.1-15.6c2.7-4.5,6.4-8.1,11.2-10.7s10.1-3.9,16-3.9,10.9,1.2,15.5,3.7c4.6,2.4,8.3,5.9,11,10.5,2.7,4.5,4,10,4,16.3s0,1.4-.1,2.2c0,.8-.1,1.6-.2,2.3h-47.6v-9.9h38.7l-6.5,2.9c0-3.1-.6-5.7-1.9-8-1.2-2.2-2.9-4-5.1-5.3-2.2-1.3-4.7-1.9-7.6-1.9s-5.5.6-7.7,1.9c-2.2,1.3-3.9,3-5.2,5.3-1.2,2.3-1.9,5-1.9,8.1v2.6c0,3.2.7,6,2.1,8.4,1.4,2.4,3.4,4.3,6,5.6s5.6,1.9,9.1,1.9,5.9-.5,8.2-1.4h0c4.5-1.9,9.7-.7,13,2.9l2.5,2.6c-2.7,3.1-6.1,5.4-10.1,7-4.1,1.7-8.7,2.5-14,2.5Z"/>
    <path class="st3" d="M306.7,89.1c4.6,0,8.8.9,12.5,2.8s6.6,4.7,8.7,8.5c2.1,3.8,3.2,8.7,3.2,14.7v33.6h-17v-30.9c0-4.7-1-8.2-3.1-10.5-2.1-2.2-5-3.4-8.8-3.4s-5.1.6-7.2,1.7c-2.1,1.1-3.8,2.9-5,5.2-1.2,2.3-1.8,5.3-1.8,8.9v29h-17v-42.4c0-9,7.3-16.2,16.2-16.2h0v16.2l-3-4.9c2.1-3.9,5.1-6.9,9-9.1,3.9-2.1,8.4-3.2,13.4-3.2Z"/>
    <path class="st3" d="M330.7,104.4v-13.1h40.6v13.1h-40.6ZM361.6,149.5c-6.9,0-12.3-1.8-16.1-5.3-3.9-3.5-5.8-8.8-5.8-15.8v-51.4h0c9.4,0,17,7.6,17,17v34.2c0,2.5.6,4.4,2,5.7,1.3,1.4,3.1,2,5.3,2h0c4.6,0,8.7,2.8,10.3,7.1l1,2.7c-1.7,1.2-3.8,2.2-6.3,2.8-2.4.6-5,.9-7.6.9Z"/>
    <path d="M414.2,149.2c-5.7,0-10.9-1-15.8-2.9-4.8-1.9-9-4.6-12.6-8.2-3.6-3.5-6.4-7.6-8.3-12.3-2-4.7-2.9-9.8-2.9-15.3s1-10.6,2.9-15.3c2-4.7,4.7-8.8,8.3-12.3,3.6-3.5,7.8-6.2,12.6-8.2,4.8-1.9,10.1-2.9,15.8-2.9s10.9,1,15.8,2.9,9,4.6,12.6,8.1c3.6,3.5,6.3,7.6,8.3,12.3s3,9.8,3,15.4-1,10.7-3,15.4c-2,4.7-4.8,8.8-8.3,12.3-3.6,3.5-7.8,6.2-12.6,8.1-4.8,1.9-10.1,2.9-15.8,2.9ZM414.2,144.1c4.9,0,9.4-.8,13.5-2.5,4.1-1.7,7.7-4,10.8-7.1s5.4-6.6,7.1-10.7c1.7-4.1,2.6-8.5,2.6-13.3s-.9-9.3-2.6-13.3-4.1-7.6-7.1-10.6-6.6-5.4-10.8-7.1-8.6-2.5-13.5-2.5-9.4.8-13.5,2.5c-4.1,1.7-7.8,4-10.8,7.1-3.1,3.1-5.5,6.6-7.2,10.6-1.7,4-2.6,8.5-2.6,13.3s.9,9.2,2.6,13.3,4.1,7.6,7.2,10.7c3.1,3.1,6.7,5.4,10.8,7.1,4.1,1.7,8.6,2.5,13.5,2.5Z"/>
    <path d="M473.8,148.6l-21.6-56.9h0c3.1,0,6,1.9,7.1,4.9l18.2,48.9h-2.3l20.6-53.8h0c2.8,0,5.3,1.7,6.3,4.4l18.8,49.5h-2.4l18.6-49.2c1.1-2.8,3.8-4.7,6.8-4.7h0l-21.6,56.9h-5.1l-20-51.7h1.7l-20.2,51.7h-5Z"/>
    <path d="M547.9,143.2v-75.4h0c3,0,5.5,2.4,5.5,5.4v75.4h0c-3,0-5.5-2.4-5.5-5.4Z"/>
  </g>
  <g>
    <path class="st2" d="M51,159.5c7.4,17.1,13.3,38.7,14.5,43.2.1.5.6.8,1.1.8h1.3c.6,0,1-.4,1.2-.9l2.7-9.3c.1-.4.8-.5.9,0l2.9,9.1c.2.6.8,1.1,1.4,1.1h.9c.6,0,1.1-.4,1.2-.9,1.4-4.5,7.7-25.2,14.5-43.1.4-1-.4-2.1-1.5-2.1h-39.7c-1.1,0-1.9,1.1-1.4,2.2Z"/>
    <path class="st0" d="M54.9,154.2s-2.9-4.2-2.6-6.2c.3-2,1.2-2.9,2.6-2.9s2.1,1.4,2.3,2.5.2,3.5-2.3,6.7Z"/>
    <path class="st2" d="M43.8,154.7s-2.9-4.2-2.5-6.2c.3-2,1.2-2.9,2.5-2.9s2.1,1.4,2.3,2.5c.2,1.1.2,3.5-2.3,6.7Z"/>
    <path class="st2" d="M49.3,152.9s-2.5-3.7-2.2-5.4c.3-1.7,1-2.6,2.2-2.6s1.8,1.2,2,2.1c.2,1,.2,3.1-2,5.8Z"/>
    <path class="st2" d="M101.2,154.3s-2.9-4.2-2.6-6.2c.3-2,1.2-2.9,2.6-2.9s2.1,1.4,2.3,2.5c.2,1.1.2,3.5-2.3,6.7Z"/>
    <path class="st2" d="M90.1,154.8s-2.9-4.2-2.6-6.2,1.2-2.9,2.6-2.9,2.1,1.4,2.3,2.5c.2,1.1.2,3.5-2.3,6.7Z"/>
    <path class="st0" d="M95.6,153s-2.5-3.7-2.2-5.4,1-2.6,2.2-2.6,1.8,1.2,2,2.1.2,3.1-2,5.8Z"/>
    <path class="st3" d="M107.4,149c.1,0,.2,0,.3,0,3.8-.3,7.8,0,11.6,0,3,0,7.6-.9,10.4.4.8.4,1.4,1.2,1.3,2-.1.7-.7,1.3-1.4,1.6s-1.4.2-2.2.2c-2.8,0-8.3-.1-4.6,3.6,1.7,1.7,4.3,2.4,6.1,4,1.8,1.6,3,3.9,2.9,6.3,0,1.6-.7,3.2-2,4.1s-3.2.9-4.4-.2c-.7-.7-1.1-1.7-1.5-2.6-.5-.9-1.3-1.8-2.3-1.8-1.3,0-2,1.4-2.6,2.5s-1.6,2.4-2.8,2.2c-.5-.1-.9-.5-1.3-.8-.7-.7-3-3.8-4.2-2.9-.5.4-.7,1-.9,1.5-.7,1.6-2.3,2.7-4,2.9-3.2.5-5.3-2.3-5.3-5.3,0-4.7,4.8-6.1,8.1-8.2.6-.4,1.2-.8,1.4-1.4.4-1-.3-2-1.1-2.7-.8-.6-1.8-1-2.5-1.7-1.7-1.5-.9-3.4,1.1-3.7Z"/>
    <path class="st3" d="M81.7,153.4h-19.8c-1.2,0-2.1-.9-2.1-2.1v-.3c0-1.2.9-2.1,2.1-2.1h19.8c1.2,0,2.1.9,2.1,2.1v.3c0,1.2-.9,2.1-2.1,2.1Z"/>
    <path class="st4" d="M68.6,13.7c-2.4,0-4.8.2-7.2.5-4.7.6-8.9,2-13.7,1.3-3.5-.5-8.3-2.2-9.8-5.8C32.1-.2,20.5.5,20.5.5c3.5,6.9,7.6,14.4,8,22.4.5,8.6-3.1,17.5-3.8,26.1-.6,7.4,2.2,15.2.3,22.4-1.6,6.2-8.5,8.6-10.9,14.8-4.8,12.6-.4,28.6,4.3,40.6,1.8,4.6,10.4,1.5,14.6,3.5,4.6,2.2,7.5,12.6,12.7,11.6,1.5-.3,3-.9,4.5-.8,1.2.1,2.2.7,3.2,1.2,7.9,3.9,21.8,5.7,30.3,2.8,3.7-1.3,6.6-3.9,10.8-4.1,8.6-.5,18.6,10.9,24.8-.1,6.4-11.2,10.9-23.6,11.9-36.5.6-7.7,1.5-20.8-6.4-25.6,0,0-6-3.7-6.1-9.4,0-5,2-9.7,1.8-14.9-.4-11.1-5.9-22.5-3.9-33.5,1.3-7.1,3.9-14,6.9-20.5,0,0-4.6-1.9-10.4,1.9-4.8,3.1-7.1,9.2-12,12.2-6.9,4.1-17.6-.2-25.1-.6-2.6-.2-5.1-.2-7.7-.2Z"/>
    <path class="st3" d="M28.4,169.6c-1.4,0-2.9-.2-4.5-.7-3-.8-5.8-2.8-8.4-5.9-.7-.9-1.7-.9-2-.9l-.7.2-.6-.2c-9.6-1.6-12.2-8.7-12.2-12.2,0-7.3,3.4-10.8,6.3-12.5,1.6-.9,3.2-1.4,4.8-1.9,2.2-.6,3.6-1.4,5-2.4.4-.3.9-.8,1.3-1.2,1-1,2.2-2.1,3.8-2.9,2.4-1.2,5.1-1.6,8.2-1.1,4,.6,7.5,3.2,9.4,6.9,1.9,3.6,1.4,7.1,1,10,0,.6-.2,1.2-.2,1.9-.2,1.9,0,4.2.5,6.4,1.1,4.9-.2,11.6-4.7,14.4-2.2,1.4-4.4,2-6.9,2ZM13.6,154.8c2.2,0,5.2.8,7.5,3.6,1.5,1.8,3.1,3,4.6,3.4,2.8.8,4.2.4,5.7-.5,1.2-.8,2-4,1.4-6.5-.7-3-.9-6.1-.6-8.9,0-.8.2-1.5.3-2.1.4-2.5.5-4-.2-5.4-.9-1.6-2.4-2.8-4.1-3.1-1.6-.2-2.8-.1-3.7.3h0c-.6.3-1.3,1-2.1,1.7-.6.5-1.2,1.1-1.8,1.6-2.1,1.6-4.4,2.8-7.4,3.7-1.2.4-2.3.7-3.2,1.2-.6.4-2.6,1.5-2.6,6,0,.7.5,3.9,5.6,5,.2,0,.4,0,.7,0Z"/>
    <path class="st0" d="M101.1,87.4c-5.5,1-10.9,3.3-14.3,5.6-1.1.7-13.8,10.8-13.8,10.8-8-7-17.8-16.7-29.1-17.5-9.4-.7-19.8,6.3-17.1,16.6,2.2,8.3,8,15.6,14.7,20.7,22.1,16.9,51,14.8,69.9-6.1,5.2-5.8,10.6-14.7,7.8-22.9-2.6-7.6-11.1-8.5-18-7.2Z"/>
    <g>
      <g>
        <path class="st3" d="M64,49.2c6.1,9.4-4.4,17.2-14.2,17.2s-17.8-8-17.8-17.8,9.2-15.4,14.5-16.3c4.9-.8,11.4,7.4,17.5,16.9Z"/>
        <g>
          <circle class="st1" cx="49.7" cy="49.2" r="11.7"/>
          <circle class="st4" cx="49.7" cy="48.8" r="6.4"/>
        </g>
        <circle class="st1" cx="50.6" cy="45.8" r="2.3"/>
      </g>
      <g>
        <path class="st3" d="M81.1,48.7c-6.1,9.4,4.4,17.2,14.2,17.2s17.8-8,17.8-17.8-9.2-15.4-14.6-16.3c-4.9-.8-11.4,7.4-17.5,16.9Z"/>
        <g>
          <circle class="st1" cx="95.3" cy="48.7" r="11.7"/>
          <circle class="st4" cx="95.3" cy="48.4" r="6.4"/>
        </g>
        <circle class="st1" cx="94.5" cy="45.3" r="2.3"/>
      </g>
      <path class="st3" d="M71.9,63.7s-8.9,1.7-4.2,13.3,5.1,8.7,5.7,7.9c.6-.7,6.8-11.8,5.1-15.8-1.7-4-4.8-6.1-6.6-5.4Z"/>
    </g>
  </g>
</svg>